<svg xmlns="http://www.w3.org/2000/svg" viewBox="0 0 64 64" role="img" aria-label="EcoGrad">
  <!-- Folha-rede: a folha é a ecologia; a nervura e os ramos, uma rede de
       coautoria; o nó limão na ponta, o conhecimento novo que ela produz. -->
  <rect width="64" height="64" fill="#07110F"/>
  <path d="M16 0V64M32 0V64M48 0V64M0 16H64M0 32H64M0 48H64" stroke="#ECF3EE" stroke-opacity=".04"/>
  <path d="M12 52C12 28 28 12 52 12C52 36 36 52 12 52Z" fill="#B8FF4A" fill-opacity=".07" stroke="#ECF3EE" stroke-width="2.6" stroke-linejoin="round"/>
  <g fill="none" stroke="#ECF3EE" stroke-linecap="round">
    <path d="M18.2 29.1L33 31M34.9 45.8L33 31" stroke-width="1.6" stroke-opacity=".4"/>
    <path d="M7 57L42 22M25 39L18.2 29.1M25 39L34.9 45.8M33 31L27.6 19.2M33 31L44.8 36.4" stroke-width="2.2"/>
  </g>
  <path d="M42 22L52 12" stroke="#B8FF4A" stroke-width="3" stroke-linecap="round"/>
  <g fill="#07110F" stroke="#ECF3EE" stroke-width="2">
    <circle cx="18.2" cy="29.1" r="2.8"/>
    <circle cx="34.9" cy="45.8" r="2.8"/>
    <circle cx="27.6" cy="19.2" r="2.8"/>
    <circle cx="44.8" cy="36.4" r="2.8"/>
  </g>
  <g fill="#ECF3EE">
    <circle cx="25" cy="39" r="2.4"/>
    <circle cx="33" cy="31" r="2.4"/>
    <circle cx="42" cy="22" r="2.4"/>
  </g>
  <circle cx="52" cy="12" r="5" fill="#B8FF4A"/>
</svg>
